{"glyphs":{"0":{"ha":447,"x_min":0,"x_max":0,"o":"m 318 972 b 257 983 299 979 278 983 b 196 972 235 983 215 979 b 74 800 124 947 74 879 l 74 786 b 74 754 74 781 74 763 l 74 728 b 7 486 74 608 7 608 b 74 244 7 367 74 367 l 74 174 b 196 0 74 93 124 25 b 257 -10 215 -7 235 -10 b 318 0 278 -10 299 -7 b 440 174 389 25 440 93 l 440 244 b 375 486 440 367 375 367 b 440 728 375 608 440 608 l 440 754 b 440 782 440 761 440 776 l 440 800 b 318 972 440 879 389 947 z m 318 782 b 318 754 318 776 318 761 l 318 728 b 253 486 318 608 253 608 b 318 244 253 367 318 367 l 318 174 b 257 113 318 139 290 113 b 196 174 222 113 196 139 l 196 244 b 129 486 196 367 129 367 b 196 728 129 608 196 608 l 196 754 b 196 782 196 761 196 776 l 196 800 b 257 861 196 833 222 861 b 318 800 290 861 318 833 z "},"1":{"ha":286,"x_min":0,"x_max":0,"o":"m 272 972 l 28 972 l 28 850 l 150 850 l 150 728 b 85 486 150 608 85 608 b 150 244 85 367 150 367 l 150 0 l 272 0 l 272 244 b 207 486 272 367 207 367 b 272 728 207 608 272 608 z "},"2":{"ha":444,"x_min":0,"x_max":0,"o":"m 417 801 b 294 972 417 881 365 947 b 233 983 276 979 256 983 b 61 861 153 983 86 932 b 50 800 54 842 50 821 l 50 739 l 172 739 l 172 800 b 233 861 172 833 200 861 b 294 800 268 861 294 833 l 294 729 b 290 675 294 708 293 690 b 118 519 285 642 199 593 b 29 386 46 454 36 419 b 38 324 25 367 31 343 b 50 244 46 303 50 278 l 50 0 l 417 0 l 417 122 l 172 122 l 172 244 b 168 299 172 265 171 283 b 163 313 167 304 164 310 b 228 463 138 363 153 400 b 404 651 340 556 390 613 b 417 729 413 672 417 696 z "},"3":{"ha":422,"x_min":0,"x_max":0,"o":"m 272 972 b 211 983 253 979 232 983 b 150 972 190 983 169 979 b 28 800 79 947 28 879 l 28 740 l 150 740 l 150 800 b 211 861 150 833 178 861 b 272 800 244 861 272 833 l 272 768 l 272 729 b 239 608 272 669 256 639 l 129 608 b 97 488 114 578 97 549 l 207 488 b 272 244 207 367 272 367 l 272 203 l 272 174 b 211 113 272 140 244 113 b 150 174 178 113 150 140 l 150 233 l 28 233 l 28 174 b 150 1 28 94 79 26 b 211 -10 169 -6 190 -10 b 272 1 232 -10 253 -6 b 394 174 343 26 394 94 l 394 203 l 394 244 b 329 488 394 367 329 367 b 394 729 329 608 394 608 l 394 768 l 394 800 b 272 972 394 879 343 947 z "},"4":{"ha":421,"x_min":0,"x_max":0,"o":"m 407 372 l 286 372 l 286 244 l 167 244 b 161 486 194 354 133 369 b 286 728 185 589 257 613 l 347 972 l 221 972 l 161 728 b 35 486 132 613 58 589 b 42 244 8 369 69 354 l 40 244 l 40 122 l 286 122 l 286 0 l 407 0 z "},"5":{"ha":443,"x_min":0,"x_max":0,"o":"m 185 850 l 429 850 l 429 972 l 63 972 l 63 728 b 28 606 63 667 44 636 l 211 606 b 244 590 224 606 236 601 b 247 544 251 578 251 560 b 240 485 243 528 240 508 b 307 243 240 365 307 365 l 307 172 b 246 111 307 139 279 111 b 185 172 211 111 185 139 l 185 232 l 63 232 l 63 172 b 185 0 63 93 113 25 b 246 -11 203 -7 224 -11 l 247 -11 b 418 111 326 -11 393 40 b 429 172 425 131 429 151 l 429 243 b 363 485 429 365 363 365 b 368 539 363 506 365 524 l 369 544 b 376 665 375 567 396 626 b 246 728 353 708 311 728 l 185 728 z m 369 544 b 369 544 369 543 369 544 z m 369 543 b 369 543 369 542 369 543 z m 368 542 b 368 542 368 540 368 540 z m 368 540 b 368 540 368 539 368 540 z "},"6":{"ha":461,"x_min":0,"x_max":0,"o":"m 318 972 b 257 983 299 979 278 983 b 196 972 235 983 214 979 b 72 800 124 947 72 879 l 72 786 b 72 754 72 781 72 764 l 72 729 b 7 488 72 608 7 608 b 72 244 7 367 72 367 l 72 174 b 196 1 72 94 124 26 b 257 -10 214 -6 235 -10 b 318 1 278 -10 299 -6 b 440 174 389 26 440 94 l 440 244 b 382 425 440 342 399 361 b 338 544 372 460 363 506 b 157 599 299 607 226 624 b 196 729 175 632 196 663 l 196 754 b 196 782 196 761 196 776 l 196 800 b 257 861 196 833 222 861 b 318 800 290 861 318 833 l 318 782 b 318 754 318 776 318 761 l 318 740 l 440 740 l 440 754 b 440 782 440 761 440 776 l 440 800 b 318 972 440 879 389 947 z m 183 486 b 260 425 222 490 251 457 b 318 244 276 361 318 342 l 318 174 b 257 113 318 140 290 113 b 196 174 222 113 196 140 l 196 244 b 138 425 196 342 154 361 b 183 486 129 453 150 482 z "},"7":{"ha":408,"x_min":0,"x_max":0,"o":"m 394 972 l 28 972 l 28 850 l 268 850 l 238 728 b 113 486 208 613 136 589 b 118 244 86 369 146 354 l 58 0 l 183 0 l 244 244 b 239 486 272 354 211 369 b 364 728 263 589 335 613 l 394 850 z "},"8":{"ha":446,"x_min":0,"x_max":0,"o":"m 439 800 b 317 972 439 881 388 947 b 256 983 297 979 276 983 b 194 972 233 983 214 979 b 72 800 124 947 72 881 l 72 792 l 72 790 l 72 729 b 106 669 72 706 90 678 b 7 486 50 654 7 585 b 72 244 7 367 72 367 l 72 174 b 194 1 72 93 124 26 b 256 -10 214 -6 233 -10 b 317 1 276 -10 297 -6 b 439 174 388 26 439 93 l 439 204 l 439 244 b 374 486 439 367 374 367 b 379 546 374 511 376 529 b 385 669 390 592 411 635 b 428 729 404 688 419 707 b 439 792 435 749 439 769 z m 317 792 b 256 731 317 758 289 731 b 194 790 222 731 194 757 l 194 800 b 256 861 194 835 222 861 b 317 800 289 861 315 835 z m 317 174 b 256 113 315 139 289 113 b 194 174 222 113 194 139 l 194 244 b 129 486 194 367 129 367 b 140 564 129 525 132 543 b 222 608 149 586 174 608 b 263 565 263 606 272 589 b 251 486 256 544 251 521 b 317 244 251 367 317 367 b 317 232 317 242 317 236 l 317 204 z "},"9":{"ha":443,"x_min":0,"x_max":0,"o":"m 314 972 b 253 983 294 979 274 983 b 192 972 231 983 210 979 b 68 800 119 947 68 879 l 68 786 b 68 754 68 781 68 764 l 68 729 b 10 549 68 633 28 614 b 219 365 -15 449 101 365 b 276 375 258 365 272 372 b 314 244 293 342 314 311 l 314 174 b 253 113 314 140 286 113 b 192 174 218 113 192 140 l 192 233 l 68 233 l 68 174 b 192 1 68 94 119 26 b 253 -10 210 -6 231 -10 b 314 1 274 -10 294 -6 b 436 174 385 26 436 94 l 436 244 b 369 488 436 367 369 367 b 436 729 369 608 436 608 l 436 754 b 436 782 436 761 436 776 l 436 800 b 314 972 436 879 385 947 z m 314 782 b 314 754 314 776 314 761 l 314 729 b 254 543 314 631 269 613 b 186 488 246 517 229 488 b 132 549 158 488 124 511 b 192 729 150 614 192 633 l 192 754 b 192 782 192 761 192 776 l 192 800 b 253 861 192 833 218 861 b 314 800 286 861 314 833 z "},"A":{"ha":447,"x_min":0,"x_max":0,"o":"m 440 800 b 318 972 440 879 389 947 b 256 983 299 979 278 983 b 194 972 235 983 214 979 b 72 800 124 947 72 879 l 72 729 b 7 488 72 610 7 610 b 72 244 7 367 72 367 l 72 43 l 72 0 l 194 0 l 194 243 l 318 243 l 318 0 l 440 0 l 440 244 b 374 488 440 367 374 367 b 440 729 374 610 440 610 z m 318 729 b 251 488 318 610 251 610 b 286 364 251 425 269 396 l 164 364 b 129 488 147 396 129 425 b 194 729 129 610 194 610 l 194 790 b 256 851 194 824 222 851 b 318 790 290 851 318 824 z "},"Á":{"ha":447,"x_min":0,"x_max":0,"o":"m 285 1160 l 206 1031 l 308 1031 l 388 1160 z m 440 800 b 317 974 440 881 389 949 b 256 985 297 981 278 985 b 194 974 235 985 214 981 b 72 800 124 949 72 881 l 72 731 b 7 488 72 610 7 610 b 72 244 7 367 72 367 l 72 43 l 72 0 l 194 0 l 194 243 l 317 243 l 317 0 l 440 0 l 440 244 b 374 488 440 367 374 367 b 440 731 374 610 440 610 z m 317 731 b 251 488 317 610 251 610 b 286 365 251 426 268 396 l 163 365 b 129 488 146 396 129 426 b 194 731 129 610 194 610 l 194 790 b 256 851 194 825 222 851 b 317 790 290 851 317 825 z "},"Â":{"ha":447,"x_min":0,"x_max":0,"o":"m 283 1031 l 386 1031 l 307 1160 l 204 1160 l 125 1031 l 228 1031 l 256 1075 z m 440 800 b 317 974 440 881 389 949 b 256 985 299 981 278 985 b 194 974 235 985 214 981 b 72 800 124 949 72 881 l 72 731 b 7 488 72 610 7 610 b 72 244 7 367 72 367 l 72 43 l 72 0 l 194 0 l 194 243 l 317 243 l 317 0 l 440 0 l 440 244 b 374 488 440 367 374 367 b 440 731 374 610 440 610 z m 317 731 b 251 488 317 610 251 610 b 286 365 251 426 269 396 l 163 365 b 129 488 146 396 129 426 b 194 731 129 610 194 610 l 194 790 b 256 851 194 825 222 851 b 317 790 290 851 317 825 z "},"Ä":{"ha":447,"x_min":0,"x_max":0,"o":"m 224 1026 l 224 1129 l 121 1129 l 121 1026 z m 390 1026 l 390 1129 l 288 1129 l 288 1026 z m 440 800 b 317 974 440 881 389 949 b 256 985 297 981 278 985 b 194 974 235 985 214 981 b 72 800 124 949 72 881 l 72 731 b 7 488 72 610 7 610 b 72 244 7 367 72 367 l 72 43 l 72 0 l 194 0 l 194 243 l 317 243 l 317 0 l 440 0 l 440 244 b 374 488 440 367 374 367 b 440 731 374 610 440 610 z m 317 731 b 251 488 317 610 251 610 b 286 365 251 426 268 396 l 163 365 b 129 488 146 396 129 426 b 194 731 129 610 194 610 l 194 790 b 256 851 194 825 222 851 b 317 790 290 851 317 825 z "},"À":{"ha":447,"x_min":0,"x_max":0,"o":"m 228 1160 l 307 1031 l 204 1031 l 125 1160 z m 440 800 b 317 974 440 881 389 949 b 256 985 297 981 278 985 b 194 974 235 985 214 981 b 72 800 124 949 72 881 l 72 731 b 7 488 72 610 7 610 b 72 244 7 367 72 367 l 72 43 l 72 0 l 194 0 l 194 243 l 317 243 l 317 0 l 440 0 l 440 244 b 374 488 440 367 374 367 b 440 731 374 610 440 610 z m 317 731 b 251 488 317 610 251 610 b 286 365 251 426 268 396 l 163 365 b 129 488 146 396 129 426 b 194 731 129 610 194 610 l 194 790 b 256 851 194 825 222 851 b 317 790 290 851 317 825 z "},"B":{"ha":446,"x_min":0,"x_max":0,"o":"m 318 961 b 257 972 299 968 278 972 l 72 972 l 72 728 b 7 486 72 608 7 608 b 72 244 7 367 72 367 l 72 0 l 196 0 l 257 0 b 317 11 278 0 299 4 b 439 175 386 35 436 99 l 439 244 b 374 486 439 367 374 367 b 381 546 374 510 376 529 b 385 669 390 592 411 635 b 439 782 408 688 439 728 b 439 792 439 785 439 789 l 439 796 b 318 961 436 872 386 938 z m 317 786 b 257 731 314 754 289 731 l 196 731 l 196 850 l 257 850 b 317 794 289 850 314 825 b 318 792 317 793 318 792 l 318 790 b 317 786 318 789 317 788 z m 317 176 b 257 122 314 146 288 122 l 194 122 l 194 244 b 129 486 194 367 129 367 b 161 607 129 547 146 578 l 211 607 b 264 564 263 607 274 590 b 251 486 257 544 251 519 b 317 244 251 367 317 367 z "},"C":{"ha":447,"x_min":0,"x_max":0,"o":"m 318 740 l 440 740 l 440 800 b 318 974 440 881 389 949 b 256 983 299 981 278 983 b 194 974 235 983 214 981 l 194 972 b 72 800 124 947 72 879 l 72 729 b 7 488 72 608 7 608 b 72 244 7 367 72 367 l 72 174 b 194 0 72 93 124 26 b 256 -10 214 -7 235 -10 b 318 0 278 -10 299 -7 b 440 174 389 25 440 93 l 440 233 l 318 233 l 318 174 b 256 113 318 139 290 113 b 194 174 222 113 194 139 l 194 244 b 129 488 194 367 129 367 b 194 729 129 608 194 608 l 194 800 b 256 861 194 835 222 861 b 318 800 290 861 318 835 z "},"D":{"ha":446,"x_min":0,"x_max":0,"o":"m 439 789 b 317 961 439 868 388 936 b 256 972 297 968 276 972 l 72 972 l 72 814 l 72 728 b 7 486 72 608 7 608 b 72 244 7 367 72 367 b 72 213 72 232 72 221 l 72 190 l 72 0 l 194 0 l 256 0 b 317 11 276 0 297 4 b 439 183 388 36 439 104 l 439 244 b 374 486 439 367 374 367 b 439 728 374 608 439 608 z m 317 728 b 251 486 317 608 251 608 b 317 244 251 367 317 367 l 317 183 b 256 122 317 150 289 122 l 194 122 l 194 244 b 129 486 194 367 129 367 b 194 728 129 608 194 608 l 194 850 l 256 850 b 317 789 289 850 317 822 z "},"E":{"ha":446,"x_min":0,"x_max":0,"o":"m 194 850 l 439 850 l 439 972 l 72 972 l 72 883 l 72 728 b 7 486 72 608 7 608 b 72 244 7 367 72 367 l 72 114 l 72 0 l 439 0 l 439 122 l 194 122 l 194 244 b 129 486 194 367 129 367 b 161 608 129 547 144 578 l 283 608 b 315 728 299 638 315 668 l 315 729 l 194 729 z "},"É":{"ha":446,"x_min":0,"x_max":0,"o":"m 285 1156 l 206 1026 l 308 1026 l 386 1156 z m 196 850 l 439 850 l 439 972 l 74 972 l 74 883 l 74 728 b 7 486 74 608 7 608 b 74 244 7 367 74 367 l 74 114 l 74 0 l 439 0 l 439 122 l 196 122 l 196 244 b 129 486 196 367 129 367 b 163 608 129 547 146 578 l 283 608 b 317 728 300 638 317 668 l 317 729 l 196 729 z "},"Ê":{"ha":446,"x_min":0,"x_max":0,"o":"m 283 1031 l 386 1031 l 307 1160 l 204 1160 l 125 1031 l 228 1031 l 256 1075 z m 194 850 l 439 850 l 439 972 l 72 972 l 72 883 l 72 728 b 7 486 72 608 7 608 b 72 244 7 367 72 367 l 72 114 l 72 0 l 439 0 l 439 122 l 194 122 l 194 244 b 129 486 194 367 129 367 b 163 608 129 547 146 578 l 283 608 b 315 728 300 638 315 668 l 315 729 l 194 729 z "},"Ë":{"ha":446,"x_min":0,"x_max":0,"o":"m 224 1026 l 224 1129 l 121 1129 l 121 1026 z m 390 1026 l 390 1129 l 288 1129 l 288 1026 z m 194 850 l 439 850 l 439 972 l 72 972 l 72 883 l 72 728 b 7 486 72 608 7 608 b 72 244 7 367 72 367 l 72 114 l 72 0 l 439 0 l 439 122 l 194 122 l 194 244 b 129 486 194 367 129 367 b 163 608 129 547 146 578 l 283 608 b 315 728 300 638 315 668 l 315 729 l 194 729 z "},"È":{"ha":446,"x_min":0,"x_max":0,"o":"m 228 1156 l 307 1026 l 204 1026 l 125 1156 z m 194 850 l 439 850 l 439 972 l 72 972 l 72 883 l 72 728 b 7 486 72 608 7 608 b 72 244 7 367 72 367 l 72 114 l 72 0 l 439 0 l 439 122 l 194 122 l 194 244 b 129 486 194 367 129 367 b 163 608 129 547 146 578 l 283 608 b 317 728 300 638 317 668 l 317 729 l 194 729 z "},"F":{"ha":446,"x_min":0,"x_max":0,"o":"m 194 851 l 439 851 l 439 972 l 72 972 l 72 885 l 72 728 b 7 486 72 608 7 608 b 72 244 7 367 72 367 l 72 114 l 72 0 l 194 0 l 194 244 b 129 486 194 367 129 367 b 163 608 129 547 146 578 l 283 608 b 315 728 300 639 315 668 l 315 731 l 194 731 z "},"G":{"ha":446,"x_min":0,"x_max":0,"o":"m 317 742 l 439 742 l 439 800 b 317 974 439 881 389 949 b 256 985 299 981 278 985 b 194 974 235 985 214 981 b 72 800 124 949 72 881 l 72 719 b 7 478 72 600 7 600 b 72 236 7 357 72 357 l 72 199 l 72 175 b 194 1 72 94 124 26 b 256 -10 214 -6 235 -10 b 317 1 278 -10 299 -6 b 439 175 389 26 439 94 l 439 224 l 439 236 b 374 478 439 357 374 357 b 413 610 374 546 394 575 l 249 610 b 211 488 232 578 213 549 l 251 488 l 251 478 b 317 236 251 357 317 357 l 317 175 b 256 114 317 140 290 114 b 194 175 222 114 194 140 l 194 236 b 129 478 194 357 129 357 b 194 719 129 600 194 600 l 194 800 b 256 861 194 835 222 861 b 317 800 290 861 317 835 z "},"H":{"ha":446,"x_min":0,"x_max":0,"o":"m 439 972 l 317 972 l 317 729 l 194 729 l 194 972 l 72 972 l 72 728 b 7 486 72 608 7 608 b 72 244 7 367 72 367 l 72 0 l 194 0 l 194 244 b 129 486 194 367 129 367 b 163 608 129 547 146 578 l 285 608 b 251 486 268 578 251 547 b 317 244 251 367 317 367 l 317 0 l 439 0 l 439 244 b 374 486 439 367 374 367 b 439 728 374 608 439 608 z "},"I":{"ha":201,"x_min":0,"x_max":0,"o":"m 72 0 l 194 0 l 194 244 b 129 486 194 367 129 367 b 194 728 129 608 194 608 l 194 972 l 72 972 l 72 728 b 7 486 72 608 7 608 b 72 244 7 367 72 367 z "},"Í":{"ha":258,"x_min":0,"x_max":0,"o":"m 163 1157 l 83 1028 l 186 1028 l 265 1157 z m 194 974 l 72 974 l 72 729 b 7 486 72 608 7 608 b 72 244 7 367 72 367 l 72 0 l 194 0 l 194 244 b 129 486 194 367 129 367 b 194 729 129 608 194 608 z "},"Î":{"ha":275,"x_min":0,"x_max":0,"o":"m 165 1028 l 268 1028 l 189 1157 l 86 1157 l 7 1028 l 110 1028 l 138 1074 z m 199 974 l 76 974 l 76 729 b 11 486 76 608 11 608 b 76 244 11 367 76 367 l 76 0 l 199 0 l 199 244 b 133 486 199 367 133 367 b 199 729 133 608 199 608 z "},"Ï":{"ha":275,"x_min":0,"x_max":0,"o":"m 108 1021 l 108 1122 l 7 1122 l 7 1021 z m 275 1021 l 275 1122 l 174 1122 l 174 1021 z m 203 965 l 81 965 l 81 724 b 15 483 81 604 15 604 b 81 243 15 364 81 364 l 81 0 l 203 0 l 203 243 b 138 483 203 364 138 364 b 203 724 138 604 203 604 z "},"Ì":{"ha":206,"x_min":0,"x_max":0,"o":"m 110 1157 l 189 1028 l 86 1028 l 7 1157 z m 199 974 l 76 974 l 76 729 b 11 486 76 608 11 608 b 76 244 11 367 76 367 l 76 0 l 199 0 l 199 244 b 133 486 199 367 133 367 b 199 729 133 608 199 608 z "},"J":{"ha":443,"x_min":0,"x_max":0,"o":"m 436 972 l 314 972 l 314 728 b 249 485 314 607 249 607 b 314 243 249 365 314 365 l 314 172 b 253 111 314 138 286 111 b 192 172 218 111 192 138 l 192 232 l 69 232 l 69 172 b 192 -1 69 92 119 24 b 253 -11 210 -8 231 -11 b 314 -1 274 -11 294 -8 b 436 172 385 24 436 92 l 436 243 b 371 485 436 365 371 365 b 436 728 371 607 436 607 z "},"K":{"ha":446,"x_min":0,"x_max":0,"o":"m 439 972 l 318 972 l 318 790 b 317 786 318 789 318 788 b 257 731 314 754 289 731 l 196 731 l 196 972 l 72 972 l 72 728 b 7 486 72 608 7 608 b 72 244 7 367 72 367 l 72 0 l 194 0 l 194 125 b 194 178 194 143 194 161 l 194 244 b 129 486 194 367 129 367 b 161 607 129 547 146 578 l 211 607 b 264 564 263 607 274 590 b 251 486 257 544 251 519 b 317 244 251 367 317 367 l 317 218 b 317 178 317 206 317 192 l 317 0 l 439 0 l 439 171 b 439 175 439 172 439 174 l 439 244 b 374 486 439 367 374 367 b 381 546 374 510 376 529 b 365 669 389 582 403 633 b 439 782 397 676 439 715 l 439 790 b 439 792 439 790 439 792 l 439 796 z "},"L":{"ha":446,"x_min":0,"x_max":0,"o":"m 439 122 l 194 122 l 194 244 b 129 486 194 367 129 367 b 194 728 129 608 194 608 l 194 972 l 72 972 l 72 728 b 7 486 72 608 7 608 b 72 244 7 367 72 367 l 72 0 l 439 0 z "},"M":{"ha":446,"x_min":0,"x_max":0,"o":"m 439 972 l 321 972 l 256 846 l 192 972 l 72 972 l 72 885 b 72 758 72 847 72 803 l 72 728 b 7 486 72 608 7 608 b 72 244 7 367 72 367 l 72 0 l 194 0 l 194 244 b 129 486 194 367 129 367 b 193 700 129 597 183 607 b 194 697 193 699 193 699 b 197 686 194 694 196 690 b 199 674 197 682 199 678 b 200 661 199 669 200 665 b 199 647 200 656 200 651 b 199 633 199 642 199 638 l 194 607 b 190 582 192 592 190 582 l 214 596 b 239 613 221 601 229 606 b 253 624 243 615 249 619 b 268 636 258 626 263 632 l 282 651 b 293 667 286 656 290 661 l 304 682 b 313 697 307 688 310 692 l 315 703 b 251 486 307 607 251 599 b 317 244 251 367 317 367 l 317 0 l 439 0 l 439 244 b 374 486 439 367 374 367 b 439 728 374 608 439 608 b 439 743 439 733 439 738 l 439 900 z "},"N":{"ha":446,"x_min":0,"x_max":0,"o":"m 439 972 l 317 972 l 317 728 l 194 972 l 72 972 l 72 728 b 7 486 72 608 7 608 b 72 244 7 367 72 367 l 72 0 l 194 0 l 194 244 b 128 486 194 367 128 367 b 193 703 128 599 185 607 b 251 460 232 619 175 585 b 317 244 261 365 317 357 l 317 0 l 439 0 l 439 244 b 372 486 439 367 372 367 b 439 728 372 608 439 608 z "},"O":{"ha":447,"x_min":0,"x_max":0,"o":"m 318 972 b 257 983 299 979 278 983 b 196 972 235 983 215 979 b 74 800 124 947 74 879 l 74 786 b 74 754 74 781 74 763 l 74 728 b 7 486 74 608 7 608 b 74 244 7 367 74 367 l 74 174 b 196 0 74 93 124 25 b 257 -10 215 -7 235 -10 b 318 0 278 -10 299 -7 b 440 174 389 25 440 93 l 440 244 b 375 486 440 367 375 367 b 440 728 375 608 440 608 l 440 754 b 440 782 440 761 440 776 l 440 800 b 318 972 440 879 389 947 z m 318 782 b 318 754 318 776 318 761 l 318 728 b 253 486 318 608 253 608 b 318 244 253 367 318 367 l 318 174 b 257 113 318 139 290 113 b 196 174 222 113 196 139 l 196 244 b 129 486 196 367 129 367 b 196 728 129 608 196 608 l 196 754 b 196 782 196 761 196 776 l 196 800 b 257 861 196 833 222 861 b 318 800 290 861 318 833 z "},"Ó":{"ha":447,"x_min":0,"x_max":0,"o":"m 308 1031 l 388 1160 l 285 1160 l 206 1031 z m 318 972 b 257 983 299 979 278 983 b 196 972 235 983 215 979 b 74 800 124 947 74 879 l 74 786 b 74 754 74 781 74 763 l 74 728 b 7 486 74 608 7 608 b 74 244 7 367 74 367 l 74 174 b 196 0 74 93 124 25 b 257 -10 215 -7 235 -10 b 318 0 278 -10 299 -7 b 440 174 389 25 440 93 l 440 244 b 375 486 440 367 375 367 b 440 728 375 608 440 608 l 440 754 b 440 782 440 761 440 776 l 440 800 b 318 972 440 879 389 947 z m 318 782 b 318 754 318 776 318 761 l 318 728 b 253 486 318 608 253 608 b 318 244 253 367 318 367 l 318 174 b 257 113 318 139 290 113 b 196 174 222 113 196 139 l 196 244 b 129 486 196 367 129 367 b 196 728 129 608 196 608 l 196 754 b 196 782 196 761 196 776 l 196 800 b 257 861 196 833 222 861 b 318 800 290 861 318 833 z "},"Ô":{"ha":447,"x_min":0,"x_max":0,"o":"m 228 1031 l 256 1075 l 283 1031 l 386 1031 l 307 1160 l 204 1160 l 125 1031 z m 318 972 b 257 983 299 979 278 983 b 196 972 235 983 215 979 b 74 800 124 947 74 879 l 74 786 b 74 754 74 781 74 763 l 74 728 b 7 486 74 608 7 608 b 74 244 7 367 74 367 l 74 174 b 196 0 74 93 124 25 b 257 -10 215 -7 235 -10 b 318 0 278 -10 299 -7 b 440 174 389 25 440 93 l 440 244 b 375 486 440 367 375 367 b 440 728 375 608 440 608 l 440 754 b 440 782 440 761 440 776 l 440 800 b 318 972 440 879 389 947 z m 318 782 b 318 754 318 776 318 761 l 318 728 b 253 486 318 608 253 608 b 318 244 253 367 318 367 l 318 174 b 257 113 318 139 290 113 b 196 174 222 113 196 139 l 196 244 b 129 486 196 367 129 367 b 196 728 129 608 196 608 l 196 754 b 196 782 196 761 196 776 l 196 800 b 257 861 196 833 222 861 b 318 800 290 861 318 833 z "},"Ö":{"ha":447,"x_min":0,"x_max":0,"o":"m 224 1026 l 224 1129 l 121 1129 l 121 1026 z m 390 1026 l 390 1129 l 288 1129 l 288 1026 z m 318 972 b 257 983 299 979 278 983 b 196 972 235 983 215 979 b 74 800 124 947 74 879 l 74 786 b 74 754 74 781 74 763 l 74 728 b 7 486 74 608 7 608 b 74 244 7 367 74 367 l 74 174 b 196 0 74 93 124 25 b 257 -10 215 -7 235 -10 b 318 0 278 -10 299 -7 b 440 174 389 25 440 93 l 440 244 b 375 486 440 367 375 367 b 440 728 375 608 440 608 l 440 754 b 440 782 440 761 440 776 l 440 800 b 318 972 440 879 389 947 z m 318 782 b 318 754 318 776 318 761 l 318 728 b 253 486 318 608 253 608 b 318 244 253 367 318 367 l 318 174 b 257 113 318 139 290 113 b 196 174 222 113 196 139 l 196 244 b 129 486 196 367 129 367 b 196 728 129 608 196 608 l 196 754 b 196 782 196 761 196 776 l 196 800 b 257 861 196 833 222 861 b 318 800 290 861 318 833 z "},"Ò":{"ha":447,"x_min":0,"x_max":0,"o":"m 204 1031 l 307 1031 l 228 1160 l 125 1160 z m 318 972 b 257 983 299 979 278 983 b 196 972 235 983 215 979 b 74 800 124 947 74 879 l 74 786 b 74 754 74 781 74 763 l 74 728 b 7 486 74 608 7 608 b 74 244 7 367 74 367 l 74 174 b 196 0 74 93 124 25 b 257 -10 215 -7 235 -10 b 318 0 278 -10 299 -7 b 440 174 389 25 440 93 l 440 244 b 375 486 440 367 375 367 b 440 728 375 608 440 608 l 440 754 b 440 782 440 761 440 776 l 440 800 b 318 972 440 879 389 947 z m 318 782 b 318 754 318 776 318 761 l 318 728 b 253 486 318 608 253 608 b 318 244 253 367 318 367 l 318 174 b 257 113 318 139 290 113 b 196 174 222 113 196 139 l 196 244 b 129 486 196 367 129 367 b 196 728 129 608 196 608 l 196 754 b 196 782 196 761 196 776 l 196 800 b 257 861 196 833 222 861 b 318 800 290 861 318 833 z "},"P":{"ha":446,"x_min":0,"x_max":0,"o":"m 317 961 b 256 972 297 968 276 972 l 72 972 b 72 893 72 972 72 940 l 72 728 b 7 486 72 608 7 608 b 72 244 7 367 72 367 b 72 103 72 219 72 158 l 72 0 l 194 0 l 194 244 b 129 486 194 367 129 367 b 161 606 129 546 144 576 l 256 606 b 317 617 276 606 297 610 b 439 789 388 642 439 710 b 317 961 439 869 388 936 z m 194 728 b 194 757 194 738 194 747 l 194 850 l 256 850 b 317 789 289 850 317 822 b 256 728 317 756 289 728 z "},"Q":{"ha":450,"x_min":0,"x_max":0,"o":"m 319 972 b 258 983 300 979 281 983 b 196 972 236 983 215 979 b 74 799 124 947 74 879 l 74 783 b 74 761 74 779 74 772 l 74 736 b 7 492 74 615 7 615 b 74 247 7 369 74 369 l 74 176 b 196 0 74 94 124 28 l 196 -71 l 319 -71 l 319 0 b 443 176 393 28 443 94 l 443 247 b 378 492 443 369 378 369 b 443 736 378 615 443 615 l 443 761 b 443 781 443 768 443 775 l 443 799 b 319 972 443 879 393 947 z m 319 781 b 319 761 319 775 319 768 l 319 736 b 254 492 319 615 254 615 b 319 247 254 369 319 369 l 319 176 b 258 114 319 142 293 114 b 196 176 224 114 196 142 l 196 247 b 131 492 196 369 131 369 b 196 736 131 615 196 615 l 196 761 b 196 781 196 768 196 775 l 196 799 b 258 860 196 833 224 860 b 319 799 293 860 319 833 z "},"R":{"ha":446,"x_min":0,"x_max":0,"o":"m 318 961 b 257 972 299 968 278 972 l 72 972 l 72 728 b 7 486 72 608 7 608 b 72 244 7 367 72 367 l 72 0 l 194 0 l 194 125 b 194 188 194 147 194 168 l 194 244 b 129 486 194 367 129 367 b 161 608 129 547 146 578 l 211 608 b 264 564 263 608 274 590 b 251 486 257 544 251 519 b 317 244 251 367 317 367 l 317 213 l 317 0 l 439 0 l 439 213 l 439 244 b 374 486 439 367 374 367 b 381 546 374 510 376 529 b 385 669 390 592 411 635 b 439 782 408 688 439 728 b 439 792 439 785 439 789 l 439 796 b 318 961 436 874 386 938 z m 196 731 l 196 850 l 257 850 b 317 794 289 850 314 826 b 318 792 317 793 318 793 l 318 790 b 317 786 318 789 317 788 b 257 731 314 754 289 731 z "},"S":{"ha":404,"x_min":0,"x_max":0,"o":"m 275 738 l 397 738 l 397 800 b 386 861 397 821 393 842 b 215 983 361 932 294 982 l 214 983 b 153 972 192 983 171 979 b 31 800 82 947 31 879 l 31 726 b 18 651 31 694 25 671 b 8 590 10 631 6 611 b 69 486 13 574 19 550 b 269 299 138 396 260 338 b 275 244 272 285 275 265 l 275 174 b 214 113 275 139 247 113 b 153 174 179 113 153 139 l 153 232 l 31 232 l 31 174 b 153 0 31 93 81 25 b 214 -10 171 -7 192 -10 l 215 -10 b 386 113 294 -10 361 42 b 397 174 393 131 397 151 l 397 219 l 397 244 b 332 390 397 319 372 358 b 147 581 188 501 172 538 b 147 675 124 621 140 643 b 153 728 150 690 153 707 l 153 729 l 153 800 b 214 861 153 833 179 861 b 275 800 247 861 275 833 z "},"T":{"ha":401,"x_min":0,"x_max":0,"o":"m 388 850 l 388 972 l 21 972 l 21 850 l 143 850 l 143 728 b 78 486 143 608 78 608 b 143 244 78 367 143 367 l 143 0 l 265 0 l 265 244 b 200 486 265 367 200 367 b 265 728 200 608 265 608 l 265 850 z "},"U":{"ha":446,"x_min":0,"x_max":0,"o":"m 439 972 l 317 972 l 317 728 b 251 486 317 608 251 608 b 317 244 251 365 317 365 l 317 172 b 256 111 317 139 290 111 b 194 172 222 111 194 139 l 194 244 b 129 486 194 365 129 365 b 194 728 129 608 194 608 l 194 972 l 72 972 l 72 728 b 7 486 72 608 7 608 b 72 244 7 365 72 365 l 72 172 b 194 0 72 93 124 25 b 256 -11 214 -7 235 -11 b 317 0 278 -11 297 -7 b 439 172 389 25 439 93 l 439 244 b 374 486 439 365 374 365 b 439 728 374 608 439 608 z "},"Ú":{"ha":446,"x_min":0,"x_max":0,"o":"m 285 1156 l 206 1026 l 308 1026 l 386 1156 z m 439 972 l 317 972 l 317 728 b 251 486 317 608 251 608 b 317 244 251 365 317 365 l 317 172 b 256 111 317 139 290 111 b 194 172 222 111 194 139 l 194 244 b 129 486 194 365 129 365 b 194 728 129 608 194 608 l 194 972 l 72 972 l 72 728 b 7 486 72 608 7 608 b 72 244 7 365 72 365 l 72 172 b 194 0 72 93 124 25 b 256 -11 214 -7 235 -11 b 317 0 278 -11 297 -7 b 439 172 389 25 439 93 l 439 244 b 374 486 439 365 374 365 b 439 728 374 608 439 608 z "},"Û":{"ha":446,"x_min":0,"x_max":0,"o":"m 283 1031 l 386 1031 l 307 1160 l 204 1160 l 125 1031 l 228 1031 l 256 1075 z m 439 972 l 317 972 l 317 728 b 251 486 317 608 251 608 b 317 244 251 365 317 365 l 317 172 b 256 111 317 139 290 111 b 194 172 222 111 194 139 l 194 244 b 129 486 194 365 129 365 b 194 728 129 608 194 608 l 194 972 l 72 972 l 72 728 b 7 486 72 608 7 608 b 72 244 7 365 72 365 l 72 172 b 194 0 72 93 124 25 b 256 -11 214 -7 235 -11 b 317 0 278 -11 297 -7 b 439 172 389 25 439 93 l 439 244 b 374 486 439 365 374 365 b 439 728 374 608 439 608 z "},"Ü":{"ha":446,"x_min":0,"x_max":0,"o":"m 224 1026 l 224 1129 l 121 1129 l 121 1026 z m 390 1026 l 390 1129 l 288 1129 l 288 1026 z m 439 972 l 317 972 l 317 728 b 251 486 317 608 251 608 b 317 244 251 365 317 365 l 317 172 b 256 111 317 139 290 111 b 194 172 222 111 194 139 l 194 244 b 129 486 194 365 129 365 b 194 728 129 608 194 608 l 194 972 l 72 972 l 72 728 b 7 486 72 608 7 608 b 72 244 7 365 72 365 l 72 172 b 194 0 72 93 124 25 b 256 -11 214 -7 235 -11 b 317 0 278 -11 297 -7 b 439 172 389 25 439 93 l 439 244 b 374 486 439 365 374 365 b 439 728 374 608 439 608 z "},"Ù":{"ha":446,"x_min":0,"x_max":0,"o":"m 228 1156 l 307 1026 l 204 1026 l 125 1156 z m 439 972 l 317 972 l 317 728 b 251 486 317 608 251 608 b 317 244 251 365 317 365 l 317 172 b 256 111 317 139 290 111 b 194 172 222 111 194 139 l 194 244 b 129 486 194 365 129 365 b 194 728 129 608 194 608 l 194 972 l 72 972 l 72 728 b 7 486 72 608 7 608 b 72 244 7 365 72 365 l 72 172 b 194 0 72 93 124 25 b 256 -11 214 -7 235 -11 b 317 0 278 -11 297 -7 b 439 172 389 25 439 93 l 439 244 b 374 486 439 365 374 365 b 439 728 374 608 439 608 z "},"V":{"ha":446,"x_min":0,"x_max":0,"o":"m 439 972 l 317 972 l 317 728 b 251 486 317 608 251 608 b 317 264 251 374 310 367 l 256 144 l 193 268 b 129 486 186 367 129 374 b 194 728 129 608 194 608 l 194 972 l 72 972 l 72 885 l 72 728 b 7 486 72 608 7 608 b 72 244 7 367 72 367 l 196 1 l 196 0 l 315 0 l 315 1 l 439 243 b 374 486 439 367 374 367 b 439 728 374 608 439 608 z "},"W":{"ha":446,"x_min":0,"x_max":0,"o":"m 439 972 l 317 972 l 317 728 b 251 486 317 607 251 607 b 315 269 251 374 307 365 b 313 275 315 271 314 274 b 304 290 310 281 307 285 l 293 306 b 282 322 290 311 286 317 b 268 336 276 326 272 332 b 253 350 263 342 258 346 b 239 360 249 354 243 357 l 214 376 b 190 390 200 385 190 390 l 194 365 b 199 340 196 358 197 349 l 199 326 b 200 313 200 321 200 317 b 199 299 200 307 199 303 b 197 286 199 294 197 290 b 194 275 196 282 194 279 b 193 272 193 274 193 274 b 129 486 183 365 129 375 b 194 728 129 607 194 607 l 194 972 l 72 972 l 72 728 b 7 486 72 607 7 607 b 72 244 7 364 72 364 b 72 214 72 235 72 225 l 72 89 l 72 0 l 192 0 l 256 128 l 321 0 l 439 0 l 439 72 b 439 229 439 72 439 124 l 439 244 b 374 486 439 364 374 364 b 439 728 374 607 439 607 z "},"X":{"ha":446,"x_min":0,"x_max":0,"o":"m 428 728 b 439 792 435 747 439 769 l 439 972 l 317 972 l 317 792 b 256 731 317 757 289 731 b 194 790 222 731 194 757 l 194 972 l 72 972 l 72 792 l 72 790 b 72 789 72 790 72 789 l 72 728 b 106 669 72 699 92 674 b 7 486 51 654 7 583 b 72 244 7 367 72 367 l 72 0 l 194 0 l 194 244 b 129 486 194 367 129 367 b 140 563 129 524 132 542 b 222 607 149 585 174 607 b 263 564 263 604 272 588 b 251 486 256 544 251 519 b 317 244 251 367 317 367 b 317 231 317 240 317 236 l 317 204 l 317 0 l 439 0 l 439 204 l 439 244 b 372 486 439 367 372 367 b 379 546 372 510 376 529 b 385 669 390 592 411 635 l 383 669 b 428 728 404 686 419 707 z "},"Y":{"ha":408,"x_min":0,"x_max":0,"o":"m 401 972 l 279 972 l 279 792 b 218 731 279 757 251 731 b 157 792 185 731 157 757 l 157 972 l 35 972 l 35 792 b 131 618 35 689 68 653 b 92 486 113 585 92 554 b 157 244 92 367 157 367 l 157 0 l 279 0 l 279 244 b 214 486 279 367 214 367 b 253 618 214 554 233 585 b 390 728 311 635 371 676 b 401 792 397 747 401 769 z "},"Z":{"ha":408,"x_min":0,"x_max":0,"o":"m 401 972 l 35 972 l 35 850 l 272 850 l 232 728 b 89 486 197 622 118 579 b 75 244 58 393 107 343 l 35 122 l 35 0 l 164 0 l 401 0 l 401 122 l 164 122 l 203 244 l 211 268 b 218 486 229 351 190 401 b 353 704 246 572 315 615 l 361 728 l 400 850 l 401 850 z "},"a":{"ha":447,"x_min":0,"x_max":0,"o":"m 440 800 b 318 972 440 879 389 947 b 256 983 299 979 278 983 b 194 972 235 983 214 979 b 72 800 124 947 72 879 l 72 729 b 7 488 72 610 7 610 b 72 244 7 367 72 367 l 72 43 l 72 0 l 194 0 l 194 243 l 318 243 l 318 0 l 440 0 l 440 244 b 374 488 440 367 374 367 b 440 729 374 610 440 610 z m 318 729 b 251 488 318 610 251 610 b 286 364 251 425 269 396 l 164 364 b 129 488 147 396 129 425 b 194 729 129 610 194 610 l 194 790 b 256 851 194 824 222 851 b 318 790 290 851 318 824 z "},"á":{"ha":447,"x_min":0,"x_max":0,"o":"m 285 1160 l 206 1031 l 308 1031 l 388 1160 z m 440 800 b 317 974 440 881 389 949 b 256 985 297 981 278 985 b 194 974 235 985 214 981 b 72 800 124 949 72 881 l 72 731 b 7 488 72 610 7 610 b 72 244 7 367 72 367 l 72 43 l 72 0 l 194 0 l 194 243 l 317 243 l 317 0 l 440 0 l 440 244 b 374 488 440 367 374 367 b 440 731 374 610 440 610 z m 317 731 b 251 488 317 610 251 610 b 286 365 251 426 268 396 l 163 365 b 129 488 146 396 129 426 b 194 731 129 610 194 610 l 194 790 b 256 851 194 825 222 851 b 317 790 290 851 317 825 z "},"â":{"ha":447,"x_min":0,"x_max":0,"o":"m 283 1031 l 386 1031 l 307 1160 l 204 1160 l 125 1031 l 228 1031 l 256 1075 z m 440 800 b 317 974 440 881 389 949 b 256 985 299 981 278 985 b 194 974 235 985 214 981 b 72 800 124 949 72 881 l 72 731 b 7 488 72 610 7 610 b 72 244 7 367 72 367 l 72 43 l 72 0 l 194 0 l 194 243 l 317 243 l 317 0 l 440 0 l 440 244 b 374 488 440 367 374 367 b 440 731 374 610 440 610 z m 317 731 b 251 488 317 610 251 610 b 286 365 251 426 269 396 l 163 365 b 129 488 146 396 129 426 b 194 731 129 610 194 610 l 194 790 b 256 851 194 825 222 851 b 317 790 290 851 317 825 z "},"ä":{"ha":447,"x_min":0,"x_max":0,"o":"m 224 1026 l 224 1129 l 121 1129 l 121 1026 z m 390 1026 l 390 1129 l 288 1129 l 288 1026 z m 440 800 b 317 974 440 881 389 949 b 256 985 297 981 278 985 b 194 974 235 985 214 981 b 72 800 124 949 72 881 l 72 731 b 7 488 72 610 7 610 b 72 244 7 367 72 367 l 72 43 l 72 0 l 194 0 l 194 243 l 317 243 l 317 0 l 440 0 l 440 244 b 374 488 440 367 374 367 b 440 731 374 610 440 610 z m 317 731 b 251 488 317 610 251 610 b 286 365 251 426 268 396 l 163 365 b 129 488 146 396 129 426 b 194 731 129 610 194 610 l 194 790 b 256 851 194 825 222 851 b 317 790 290 851 317 825 z "},"à":{"ha":447,"x_min":0,"x_max":0,"o":"m 228 1160 l 307 1031 l 204 1031 l 125 1160 z m 440 800 b 317 974 440 881 389 949 b 256 985 297 981 278 985 b 194 974 235 985 214 981 b 72 800 124 949 72 881 l 72 731 b 7 488 72 610 7 610 b 72 244 7 367 72 367 l 72 43 l 72 0 l 194 0 l 194 243 l 317 243 l 317 0 l 440 0 l 440 244 b 374 488 440 367 374 367 b 440 731 374 610 440 610 z m 317 731 b 251 488 317 610 251 610 b 286 365 251 426 268 396 l 163 365 b 129 488 146 396 129 426 b 194 731 129 610 194 610 l 194 790 b 256 851 194 825 222 851 b 317 790 290 851 317 825 z "},"b":{"ha":446,"x_min":0,"x_max":0,"o":"m 318 961 b 257 972 299 968 278 972 l 72 972 l 72 728 b 7 486 72 608 7 608 b 72 244 7 367 72 367 l 72 0 l 196 0 l 257 0 b 317 11 278 0 299 4 b 439 175 386 35 436 99 l 439 244 b 374 486 439 367 374 367 b 381 546 374 510 376 529 b 385 669 390 592 411 635 b 439 782 408 688 439 728 b 439 792 439 785 439 789 l 439 796 b 318 961 436 872 386 938 z m 317 786 b 257 731 314 754 289 731 l 196 731 l 196 850 l 257 850 b 317 794 289 850 314 825 b 318 792 317 793 318 792 l 318 790 b 317 786 318 789 317 788 z m 317 176 b 257 122 314 146 288 122 l 194 122 l 194 244 b 129 486 194 367 129 367 b 161 607 129 547 146 578 l 211 607 b 264 564 263 607 274 590 b 251 486 257 544 251 519 b 317 244 251 367 317 367 z "},"c":{"ha":447,"x_min":0,"x_max":0,"o":"m 318 740 l 440 740 l 440 800 b 318 974 440 881 389 949 b 256 983 299 981 278 983 b 194 974 235 983 214 981 l 194 972 b 72 800 124 947 72 879 l 72 729 b 7 488 72 608 7 608 b 72 244 7 367 72 367 l 72 174 b 194 0 72 93 124 26 b 256 -10 214 -7 235 -10 b 318 0 278 -10 299 -7 b 440 174 389 25 440 93 l 440 233 l 318 233 l 318 174 b 256 113 318 139 290 113 b 194 174 222 113 194 139 l 194 244 b 129 488 194 367 129 367 b 194 729 129 608 194 608 l 194 800 b 256 861 194 835 222 861 b 318 800 290 861 318 835 z "},"d":{"ha":446,"x_min":0,"x_max":0,"o":"m 439 789 b 317 961 439 868 388 936 b 256 972 297 968 276 972 l 72 972 l 72 814 l 72 728 b 7 486 72 608 7 608 b 72 244 7 367 72 367 b 72 213 72 232 72 221 l 72 190 l 72 0 l 194 0 l 256 0 b 317 11 276 0 297 4 b 439 183 388 36 439 104 l 439 244 b 374 486 439 367 374 367 b 439 728 374 608 439 608 z m 317 728 b 251 486 317 608 251 608 b 317 244 251 367 317 367 l 317 183 b 256 122 317 150 289 122 l 194 122 l 194 244 b 129 486 194 367 129 367 b 194 728 129 608 194 608 l 194 850 l 256 850 b 317 789 289 850 317 822 z "},"e":{"ha":446,"x_min":0,"x_max":0,"o":"m 194 850 l 439 850 l 439 972 l 72 972 l 72 883 l 72 728 b 7 486 72 608 7 608 b 72 244 7 367 72 367 l 72 114 l 72 0 l 439 0 l 439 122 l 194 122 l 194 244 b 129 486 194 367 129 367 b 161 608 129 547 144 578 l 283 608 b 315 728 299 638 315 668 l 315 729 l 194 729 z "},"é":{"ha":446,"x_min":0,"x_max":0,"o":"m 285 1156 l 206 1026 l 308 1026 l 386 1156 z m 196 850 l 439 850 l 439 972 l 74 972 l 74 883 l 74 728 b 7 486 74 608 7 608 b 74 244 7 367 74 367 l 74 114 l 74 0 l 439 0 l 439 122 l 196 122 l 196 244 b 129 486 196 367 129 367 b 163 608 129 547 146 578 l 283 608 b 317 728 300 638 317 668 l 317 729 l 196 729 z "},"ê":{"ha":446,"x_min":0,"x_max":0,"o":"m 283 1031 l 386 1031 l 307 1160 l 204 1160 l 125 1031 l 228 1031 l 256 1075 z m 194 850 l 439 850 l 439 972 l 72 972 l 72 883 l 72 728 b 7 486 72 608 7 608 b 72 244 7 367 72 367 l 72 114 l 72 0 l 439 0 l 439 122 l 194 122 l 194 244 b 129 486 194 367 129 367 b 163 608 129 547 146 578 l 283 608 b 315 728 300 638 315 668 l 315 729 l 194 729 z "},"ë":{"ha":446,"x_min":0,"x_max":0,"o":"m 224 1026 l 224 1129 l 121 1129 l 121 1026 z m 390 1026 l 390 1129 l 288 1129 l 288 1026 z m 194 850 l 439 850 l 439 972 l 72 972 l 72 883 l 72 728 b 7 486 72 608 7 608 b 72 244 7 367 72 367 l 72 114 l 72 0 l 439 0 l 439 122 l 194 122 l 194 244 b 129 486 194 367 129 367 b 163 608 129 547 146 578 l 283 608 b 315 728 300 638 315 668 l 315 729 l 194 729 z "},"è":{"ha":446,"x_min":0,"x_max":0,"o":"m 228 1156 l 307 1026 l 204 1026 l 125 1156 z m 194 850 l 439 850 l 439 972 l 72 972 l 72 883 l 72 728 b 7 486 72 608 7 608 b 72 244 7 367 72 367 l 72 114 l 72 0 l 439 0 l 439 122 l 194 122 l 194 244 b 129 486 194 367 129 367 b 163 608 129 547 146 578 l 283 608 b 317 728 300 638 317 668 l 317 729 l 194 729 z "},"f":{"ha":446,"x_min":0,"x_max":0,"o":"m 194 851 l 439 851 l 439 972 l 72 972 l 72 885 l 72 728 b 7 486 72 608 7 608 b 72 244 7 367 72 367 l 72 114 l 72 0 l 194 0 l 194 244 b 129 486 194 367 129 367 b 163 608 129 547 146 578 l 283 608 b 315 728 300 639 315 668 l 315 731 l 194 731 z "},"g":{"ha":446,"x_min":0,"x_max":0,"o":"m 317 742 l 439 742 l 439 800 b 317 974 439 881 389 949 b 256 985 299 981 278 985 b 194 974 235 985 214 981 b 72 800 124 949 72 881 l 72 719 b 7 478 72 600 7 600 b 72 236 7 357 72 357 l 72 199 l 72 175 b 194 1 72 94 124 26 b 256 -10 214 -6 235 -10 b 317 1 278 -10 299 -6 b 439 175 389 26 439 94 l 439 224 l 439 236 b 374 478 439 357 374 357 b 413 610 374 546 394 575 l 249 610 b 211 488 232 578 213 549 l 251 488 l 251 478 b 317 236 251 357 317 357 l 317 175 b 256 114 317 140 290 114 b 194 175 222 114 194 140 l 194 236 b 129 478 194 357 129 357 b 194 719 129 600 194 600 l 194 800 b 256 861 194 835 222 861 b 317 800 290 861 317 835 z "},"h":{"ha":446,"x_min":0,"x_max":0,"o":"m 439 972 l 317 972 l 317 729 l 194 729 l 194 972 l 72 972 l 72 728 b 7 486 72 608 7 608 b 72 244 7 367 72 367 l 72 0 l 194 0 l 194 244 b 129 486 194 367 129 367 b 163 608 129 547 146 578 l 285 608 b 251 486 268 578 251 547 b 317 244 251 367 317 367 l 317 0 l 439 0 l 439 244 b 374 486 439 367 374 367 b 439 728 374 608 439 608 z "},"i":{"ha":201,"x_min":0,"x_max":0,"o":"m 72 0 l 194 0 l 194 244 b 129 486 194 367 129 367 b 194 728 129 608 194 608 l 194 972 l 72 972 l 72 728 b 7 486 72 608 7 608 b 72 244 7 367 72 367 z "},"í":{"ha":258,"x_min":0,"x_max":0,"o":"m 163 1157 l 83 1028 l 186 1028 l 265 1157 z m 194 974 l 72 974 l 72 729 b 7 486 72 608 7 608 b 72 244 7 367 72 367 l 72 0 l 194 0 l 194 244 b 129 486 194 367 129 367 b 194 729 129 608 194 608 z "},"î":{"ha":275,"x_min":0,"x_max":0,"o":"m 165 1028 l 268 1028 l 189 1157 l 86 1157 l 7 1028 l 110 1028 l 138 1074 z m 199 974 l 76 974 l 76 729 b 11 486 76 608 11 608 b 76 244 11 367 76 367 l 76 0 l 199 0 l 199 244 b 133 486 199 367 133 367 b 199 729 133 608 199 608 z "},"ï":{"ha":275,"x_min":0,"x_max":0,"o":"m 108 1021 l 108 1122 l 7 1122 l 7 1021 z m 275 1021 l 275 1122 l 174 1122 l 174 1021 z m 203 965 l 81 965 l 81 724 b 15 483 81 604 15 604 b 81 243 15 364 81 364 l 81 0 l 203 0 l 203 243 b 138 483 203 364 138 364 b 203 724 138 604 203 604 z "},"ì":{"ha":206,"x_min":0,"x_max":0,"o":"m 110 1157 l 189 1028 l 86 1028 l 7 1157 z m 199 974 l 76 974 l 76 729 b 11 486 76 608 11 608 b 76 244 11 367 76 367 l 76 0 l 199 0 l 199 244 b 133 486 199 367 133 367 b 199 729 133 608 199 608 z "},"j":{"ha":401,"x_min":0,"x_max":0,"o":"m 394 972 l 272 972 l 272 728 b 207 485 272 607 207 607 b 272 243 207 365 272 365 l 272 172 b 211 111 272 138 244 111 b 150 172 176 111 150 138 l 150 232 l 28 232 l 28 172 b 150 -1 28 92 78 24 b 211 -11 168 -8 189 -11 b 272 -1 232 -11 253 -8 b 394 172 343 24 394 92 l 394 243 b 329 485 394 365 329 365 b 394 728 329 607 394 607 z "},"k":{"ha":446,"x_min":0,"x_max":0,"o":"m 439 972 l 318 972 l 318 790 b 317 786 318 789 318 788 b 257 731 314 754 289 731 l 196 731 l 196 972 l 72 972 l 72 728 b 7 486 72 608 7 608 b 72 244 7 367 72 367 l 72 0 l 194 0 l 194 125 b 194 178 194 143 194 161 l 194 244 b 129 486 194 367 129 367 b 161 607 129 547 146 578 l 211 607 b 264 564 263 607 274 590 b 251 486 257 544 251 519 b 317 244 251 367 317 367 l 317 218 b 317 178 317 206 317 192 l 317 0 l 439 0 l 439 171 b 439 175 439 172 439 174 l 439 244 b 374 486 439 367 374 367 b 381 546 374 510 376 529 b 365 669 389 582 403 633 b 439 782 397 676 439 715 l 439 790 b 439 792 439 790 439 792 l 439 796 z "},"l":{"ha":446,"x_min":0,"x_max":0,"o":"m 439 122 l 194 122 l 194 244 b 129 486 194 367 129 367 b 194 728 129 608 194 608 l 194 972 l 72 972 l 72 728 b 7 486 72 608 7 608 b 72 244 7 367 72 367 l 72 0 l 439 0 z "},"m":{"ha":446,"x_min":0,"x_max":0,"o":"m 439 972 l 321 972 l 256 846 l 192 972 l 72 972 l 72 885 b 72 758 72 847 72 803 l 72 728 b 7 486 72 608 7 608 b 72 244 7 367 72 367 l 72 0 l 194 0 l 194 244 b 129 486 194 367 129 367 b 193 700 129 597 183 607 b 194 697 193 699 193 699 b 197 686 194 694 196 690 b 199 674 197 682 199 678 b 200 661 199 669 200 665 b 199 647 200 656 200 651 b 199 633 199 642 199 638 l 194 607 b 190 582 192 592 190 582 l 214 596 b 239 613 221 601 229 606 b 253 624 243 615 249 619 b 268 636 258 626 263 632 l 282 651 b 293 667 286 656 290 661 l 304 682 b 313 697 307 688 310 692 l 315 703 b 251 486 307 607 251 599 b 317 244 251 367 317 367 l 317 0 l 439 0 l 439 244 b 374 486 439 367 374 367 b 439 728 374 608 439 608 b 439 743 439 733 439 738 l 439 900 z "},"n":{"ha":446,"x_min":0,"x_max":0,"o":"m 439 972 l 317 972 l 317 728 l 194 972 l 72 972 l 72 728 b 7 486 72 608 7 608 b 72 244 7 367 72 367 l 72 0 l 194 0 l 194 244 b 128 486 194 367 128 367 b 193 703 128 599 185 607 b 251 460 232 619 175 585 b 317 244 261 365 317 357 l 317 0 l 439 0 l 439 244 b 372 486 439 367 372 367 b 439 728 372 608 439 608 z "},"o":{"ha":447,"x_min":0,"x_max":0,"o":"m 318 972 b 257 983 299 979 278 983 b 196 972 235 983 215 979 b 74 800 124 947 74 879 l 74 786 b 74 754 74 781 74 763 l 74 728 b 7 486 74 608 7 608 b 74 244 7 367 74 367 l 74 174 b 196 0 74 93 124 25 b 257 -10 215 -7 235 -10 b 318 0 278 -10 299 -7 b 440 174 389 25 440 93 l 440 244 b 375 486 440 367 375 367 b 440 728 375 608 440 608 l 440 754 b 440 782 440 761 440 776 l 440 800 b 318 972 440 879 389 947 z m 318 782 b 318 754 318 776 318 761 l 318 728 b 253 486 318 608 253 608 b 318 244 253 367 318 367 l 318 174 b 257 113 318 139 290 113 b 196 174 222 113 196 139 l 196 244 b 129 486 196 367 129 367 b 196 728 129 608 196 608 l 196 754 b 196 782 196 761 196 776 l 196 800 b 257 861 196 833 222 861 b 318 800 290 861 318 833 z "},"ó":{"ha":447,"x_min":0,"x_max":0,"o":"m 308 1031 l 388 1160 l 285 1160 l 206 1031 z m 318 972 b 257 983 299 979 278 983 b 196 972 235 983 215 979 b 74 800 124 947 74 879 l 74 786 b 74 754 74 781 74 763 l 74 728 b 7 486 74 608 7 608 b 74 244 7 367 74 367 l 74 174 b 196 0 74 93 124 25 b 257 -10 215 -7 235 -10 b 318 0 278 -10 299 -7 b 440 174 389 25 440 93 l 440 244 b 375 486 440 367 375 367 b 440 728 375 608 440 608 l 440 754 b 440 782 440 761 440 776 l 440 800 b 318 972 440 879 389 947 z m 318 782 b 318 754 318 776 318 761 l 318 728 b 253 486 318 608 253 608 b 318 244 253 367 318 367 l 318 174 b 257 113 318 139 290 113 b 196 174 222 113 196 139 l 196 244 b 129 486 196 367 129 367 b 196 728 129 608 196 608 l 196 754 b 196 782 196 761 196 776 l 196 800 b 257 861 196 833 222 861 b 318 800 290 861 318 833 z "},"ô":{"ha":447,"x_min":0,"x_max":0,"o":"m 228 1031 l 256 1075 l 283 1031 l 386 1031 l 307 1160 l 204 1160 l 125 1031 z m 318 972 b 257 983 299 979 278 983 b 196 972 235 983 215 979 b 74 800 124 947 74 879 l 74 786 b 74 754 74 781 74 763 l 74 728 b 7 486 74 608 7 608 b 74 244 7 367 74 367 l 74 174 b 196 0 74 93 124 25 b 257 -10 215 -7 235 -10 b 318 0 278 -10 299 -7 b 440 174 389 25 440 93 l 440 244 b 375 486 440 367 375 367 b 440 728 375 608 440 608 l 440 754 b 440 782 440 761 440 776 l 440 800 b 318 972 440 879 389 947 z m 318 782 b 318 754 318 776 318 761 l 318 728 b 253 486 318 608 253 608 b 318 244 253 367 318 367 l 318 174 b 257 113 318 139 290 113 b 196 174 222 113 196 139 l 196 244 b 129 486 196 367 129 367 b 196 728 129 608 196 608 l 196 754 b 196 782 196 761 196 776 l 196 800 b 257 861 196 833 222 861 b 318 800 290 861 318 833 z "},"ö":{"ha":447,"x_min":0,"x_max":0,"o":"m 224 1026 l 224 1129 l 121 1129 l 121 1026 z m 390 1026 l 390 1129 l 288 1129 l 288 1026 z m 318 972 b 257 983 299 979 278 983 b 196 972 235 983 215 979 b 74 800 124 947 74 879 l 74 786 b 74 754 74 781 74 763 l 74 728 b 7 486 74 608 7 608 b 74 244 7 367 74 367 l 74 174 b 196 0 74 93 124 25 b 257 -10 215 -7 235 -10 b 318 0 278 -10 299 -7 b 440 174 389 25 440 93 l 440 244 b 375 486 440 367 375 367 b 440 728 375 608 440 608 l 440 754 b 440 782 440 761 440 776 l 440 800 b 318 972 440 879 389 947 z m 318 782 b 318 754 318 776 318 761 l 318 728 b 253 486 318 608 253 608 b 318 244 253 367 318 367 l 318 174 b 257 113 318 139 290 113 b 196 174 222 113 196 139 l 196 244 b 129 486 196 367 129 367 b 196 728 129 608 196 608 l 196 754 b 196 782 196 761 196 776 l 196 800 b 257 861 196 833 222 861 b 318 800 290 861 318 833 z "},"ò":{"ha":447,"x_min":0,"x_max":0,"o":"m 204 1031 l 307 1031 l 228 1160 l 125 1160 z m 318 972 b 257 983 299 979 278 983 b 196 972 235 983 215 979 b 74 800 124 947 74 879 l 74 786 b 74 754 74 781 74 763 l 74 728 b 7 486 74 608 7 608 b 74 244 7 367 74 367 l 74 174 b 196 0 74 93 124 25 b 257 -10 215 -7 235 -10 b 318 0 278 -10 299 -7 b 440 174 389 25 440 93 l 440 244 b 375 486 440 367 375 367 b 440 728 375 608 440 608 l 440 754 b 440 782 440 761 440 776 l 440 800 b 318 972 440 879 389 947 z m 318 782 b 318 754 318 776 318 761 l 318 728 b 253 486 318 608 253 608 b 318 244 253 367 318 367 l 318 174 b 257 113 318 139 290 113 b 196 174 222 113 196 139 l 196 244 b 129 486 196 367 129 367 b 196 728 129 608 196 608 l 196 754 b 196 782 196 761 196 776 l 196 800 b 257 861 196 833 222 861 b 318 800 290 861 318 833 z "},"p":{"ha":446,"x_min":0,"x_max":0,"o":"m 317 961 b 256 972 297 968 276 972 l 72 972 b 72 893 72 972 72 940 l 72 728 b 7 486 72 608 7 608 b 72 244 7 367 72 367 b 72 103 72 219 72 158 l 72 0 l 194 0 l 194 244 b 129 486 194 367 129 367 b 161 606 129 546 144 576 l 256 606 b 317 617 276 606 297 610 b 439 789 388 642 439 710 b 317 961 439 869 388 936 z m 194 728 b 194 757 194 738 194 747 l 194 850 l 256 850 b 317 789 289 850 317 822 b 256 728 317 756 289 728 z "},"q":{"ha":450,"x_min":0,"x_max":0,"o":"m 319 972 b 258 983 300 979 281 983 b 196 972 236 983 215 979 b 74 799 124 947 74 879 l 74 783 b 74 761 74 779 74 772 l 74 736 b 7 492 74 615 7 615 b 74 247 7 369 74 369 l 74 176 b 196 0 74 94 124 28 l 196 -71 l 319 -71 l 319 0 b 443 176 393 28 443 94 l 443 247 b 378 492 443 369 378 369 b 443 736 378 615 443 615 l 443 761 b 443 781 443 768 443 775 l 443 799 b 319 972 443 879 393 947 z m 319 781 b 319 761 319 775 319 768 l 319 736 b 254 492 319 615 254 615 b 319 247 254 369 319 369 l 319 176 b 258 114 319 142 293 114 b 196 176 224 114 196 142 l 196 247 b 131 492 196 369 131 369 b 196 736 131 615 196 615 l 196 761 b 196 781 196 768 196 775 l 196 799 b 258 860 196 833 224 860 b 319 799 293 860 319 833 z "},"r":{"ha":446,"x_min":0,"x_max":0,"o":"m 318 961 b 257 972 299 968 278 972 l 72 972 l 72 728 b 7 486 72 608 7 608 b 72 244 7 367 72 367 l 72 0 l 194 0 l 194 125 b 194 188 194 147 194 168 l 194 244 b 129 486 194 367 129 367 b 161 608 129 547 146 578 l 211 608 b 264 564 263 608 274 590 b 251 486 257 544 251 519 b 317 244 251 367 317 367 l 317 213 l 317 0 l 439 0 l 439 213 l 439 244 b 374 486 439 367 374 367 b 381 546 374 510 376 529 b 385 669 390 592 411 635 b 439 782 408 688 439 728 b 439 792 439 785 439 789 l 439 796 b 318 961 436 874 386 938 z m 196 731 l 196 850 l 257 850 b 317 794 289 850 314 826 b 318 792 317 793 318 793 l 318 790 b 317 786 318 789 317 788 b 257 731 314 754 289 731 z "},"s":{"ha":404,"x_min":0,"x_max":0,"o":"m 275 738 l 397 738 l 397 800 b 386 861 397 821 393 842 b 215 983 361 932 294 982 l 214 983 b 153 972 192 983 171 979 b 31 800 82 947 31 879 l 31 726 b 18 651 31 694 25 671 b 8 590 10 631 6 611 b 69 486 13 574 19 550 b 269 299 138 396 260 338 b 275 244 272 285 275 265 l 275 174 b 214 113 275 139 247 113 b 153 174 179 113 153 139 l 153 232 l 31 232 l 31 174 b 153 0 31 93 81 25 b 214 -10 171 -7 192 -10 l 215 -10 b 386 113 294 -10 361 42 b 397 174 393 131 397 151 l 397 219 l 397 244 b 332 390 397 319 372 358 b 147 581 188 501 172 538 b 147 675 124 621 140 643 b 153 728 150 690 153 707 l 153 729 l 153 800 b 214 861 153 833 179 861 b 275 800 247 861 275 833 z "},"t":{"ha":401,"x_min":0,"x_max":0,"o":"m 388 850 l 388 972 l 21 972 l 21 850 l 143 850 l 143 728 b 78 486 143 608 78 608 b 143 244 78 367 143 367 l 143 0 l 265 0 l 265 244 b 200 486 265 367 200 367 b 265 728 200 608 265 608 l 265 850 z "},"u":{"ha":446,"x_min":0,"x_max":0,"o":"m 439 972 l 317 972 l 317 728 b 251 486 317 608 251 608 b 317 244 251 365 317 365 l 317 172 b 256 111 317 139 290 111 b 194 172 222 111 194 139 l 194 244 b 129 486 194 365 129 365 b 194 728 129 608 194 608 l 194 972 l 72 972 l 72 728 b 7 486 72 608 7 608 b 72 244 7 365 72 365 l 72 172 b 194 0 72 93 124 25 b 256 -11 214 -7 235 -11 b 317 0 278 -11 297 -7 b 439 172 389 25 439 93 l 439 244 b 374 486 439 365 374 365 b 439 728 374 608 439 608 z "},"ú":{"ha":446,"x_min":0,"x_max":0,"o":"m 285 1156 l 206 1026 l 308 1026 l 386 1156 z m 439 972 l 317 972 l 317 728 b 251 486 317 608 251 608 b 317 244 251 365 317 365 l 317 172 b 256 111 317 139 290 111 b 194 172 222 111 194 139 l 194 244 b 129 486 194 365 129 365 b 194 728 129 608 194 608 l 194 972 l 72 972 l 72 728 b 7 486 72 608 7 608 b 72 244 7 365 72 365 l 72 172 b 194 0 72 93 124 25 b 256 -11 214 -7 235 -11 b 317 0 278 -11 297 -7 b 439 172 389 25 439 93 l 439 244 b 374 486 439 365 374 365 b 439 728 374 608 439 608 z "},"û":{"ha":446,"x_min":0,"x_max":0,"o":"m 283 1031 l 386 1031 l 307 1160 l 204 1160 l 125 1031 l 228 1031 l 256 1075 z m 439 972 l 317 972 l 317 728 b 251 486 317 608 251 608 b 317 244 251 365 317 365 l 317 172 b 256 111 317 139 290 111 b 194 172 222 111 194 139 l 194 244 b 129 486 194 365 129 365 b 194 728 129 608 194 608 l 194 972 l 72 972 l 72 728 b 7 486 72 608 7 608 b 72 244 7 365 72 365 l 72 172 b 194 0 72 93 124 25 b 256 -11 214 -7 235 -11 b 317 0 278 -11 297 -7 b 439 172 389 25 439 93 l 439 244 b 374 486 439 365 374 365 b 439 728 374 608 439 608 z "},"ü":{"ha":446,"x_min":0,"x_max":0,"o":"m 224 1026 l 224 1129 l 121 1129 l 121 1026 z m 390 1026 l 390 1129 l 288 1129 l 288 1026 z m 439 972 l 317 972 l 317 728 b 251 486 317 608 251 608 b 317 244 251 365 317 365 l 317 172 b 256 111 317 139 290 111 b 194 172 222 111 194 139 l 194 244 b 129 486 194 365 129 365 b 194 728 129 608 194 608 l 194 972 l 72 972 l 72 728 b 7 486 72 608 7 608 b 72 244 7 365 72 365 l 72 172 b 194 0 72 93 124 25 b 256 -11 214 -7 235 -11 b 317 0 278 -11 297 -7 b 439 172 389 25 439 93 l 439 244 b 374 486 439 365 374 365 b 439 728 374 608 439 608 z "},"ù":{"ha":446,"x_min":0,"x_max":0,"o":"m 228 1156 l 307 1026 l 204 1026 l 125 1156 z m 439 972 l 317 972 l 317 728 b 251 486 317 608 251 608 b 317 244 251 365 317 365 l 317 172 b 256 111 317 139 290 111 b 194 172 222 111 194 139 l 194 244 b 129 486 194 365 129 365 b 194 728 129 608 194 608 l 194 972 l 72 972 l 72 728 b 7 486 72 608 7 608 b 72 244 7 365 72 365 l 72 172 b 194 0 72 93 124 25 b 256 -11 214 -7 235 -11 b 317 0 278 -11 297 -7 b 439 172 389 25 439 93 l 439 244 b 374 486 439 365 374 365 b 439 728 374 608 439 608 z "},"v":{"ha":446,"x_min":0,"x_max":0,"o":"m 439 972 l 317 972 l 317 728 b 251 486 317 608 251 608 b 317 264 251 374 310 367 l 256 144 l 193 268 b 129 486 186 367 129 374 b 194 728 129 608 194 608 l 194 972 l 72 972 l 72 885 l 72 728 b 7 486 72 608 7 608 b 72 244 7 367 72 367 l 196 1 l 196 0 l 315 0 l 315 1 l 439 243 b 374 486 439 367 374 367 b 439 728 374 608 439 608 z "},"w":{"ha":446,"x_min":0,"x_max":0,"o":"m 439 972 l 317 972 l 317 728 b 251 486 317 607 251 607 b 315 269 251 374 307 365 b 313 275 315 271 314 274 b 304 290 310 281 307 285 l 293 306 b 282 322 290 311 286 317 b 268 336 276 326 272 332 b 253 350 263 342 258 346 b 239 360 249 354 243 357 l 214 376 b 190 390 200 385 190 390 l 194 365 b 199 340 196 358 197 349 l 199 326 b 200 313 200 321 200 317 b 199 299 200 307 199 303 b 197 286 199 294 197 290 b 194 275 196 282 194 279 b 193 272 193 274 193 274 b 129 486 183 365 129 375 b 194 728 129 607 194 607 l 194 972 l 72 972 l 72 728 b 7 486 72 607 7 607 b 72 244 7 364 72 364 b 72 214 72 235 72 225 l 72 89 l 72 0 l 192 0 l 256 128 l 321 0 l 439 0 l 439 72 b 439 229 439 72 439 124 l 439 244 b 374 486 439 364 374 364 b 439 728 374 607 439 607 z "},"x":{"ha":446,"x_min":0,"x_max":0,"o":"m 428 728 b 439 792 435 747 439 769 l 439 972 l 317 972 l 317 792 b 256 731 317 757 289 731 b 194 790 222 731 194 757 l 194 972 l 72 972 l 72 792 l 72 790 b 72 789 72 790 72 789 l 72 728 b 106 669 72 699 92 674 b 7 486 51 654 7 583 b 72 244 7 367 72 367 l 72 0 l 194 0 l 194 244 b 129 486 194 367 129 367 b 140 563 129 524 132 542 b 222 607 149 585 174 607 b 263 564 263 604 272 588 b 251 486 256 544 251 519 b 317 244 251 367 317 367 b 317 231 317 240 317 236 l 317 204 l 317 0 l 439 0 l 439 204 l 439 244 b 372 486 439 367 372 367 b 379 546 372 510 376 529 b 385 669 390 592 411 635 l 383 669 b 428 728 404 686 419 707 z "},"y":{"ha":408,"x_min":0,"x_max":0,"o":"m 401 972 l 279 972 l 279 792 b 218 731 279 757 251 731 b 157 792 185 731 157 757 l 157 972 l 35 972 l 35 792 b 131 618 35 689 68 653 b 92 486 113 585 92 554 b 157 244 92 367 157 367 l 157 0 l 279 0 l 279 244 b 214 486 279 367 214 367 b 253 618 214 554 233 585 b 390 728 311 635 371 676 b 401 792 397 747 401 769 z "},"z":{"ha":408,"x_min":0,"x_max":0,"o":"m 401 972 l 35 972 l 35 850 l 272 850 l 232 728 b 89 486 197 622 118 579 b 75 244 58 393 107 343 l 35 122 l 35 0 l 164 0 l 401 0 l 401 122 l 164 122 l 203 244 l 211 268 b 218 486 229 351 190 401 b 353 704 246 572 315 615 l 361 728 l 400 850 l 401 850 z "},"*":{"ha":393,"x_min":0,"x_max":0,"o":"m 311 789 l 379 828 l 318 935 l 250 896 l 250 972 l 128 972 l 128 896 l 61 935 l 0 828 l 67 789 l 0 751 l 13 728 b 46 644 19 717 39 686 b 125 683 63 651 124 683 b 94 606 118 650 107 628 l 217 606 b 247 683 229 628 240 650 b 303 644 247 683 292 654 b 365 728 332 675 353 706 l 379 751 z "},":":{"ha":222,"x_min":0,"x_max":0,"o":"m 21 475 b 60 354 22 415 43 386 l 182 354 b 143 475 165 386 144 415 z m 86 0 l 208 0 l 208 122 l 86 122 z "},",":{"ha":232,"x_min":0,"x_max":0,"o":"m 204 128 l 82 128 l 82 0 b 14 -61 82 -33 56 -61 l 14 -190 b 82 -176 42 -190 63 -183 b 204 0 157 -150 204 -82 z "},"!":{"ha":201,"x_min":0,"x_max":0,"o":"m 65 183 l 188 183 l 188 244 b 122 486 188 367 122 367 b 188 728 122 608 188 608 l 188 972 l 65 972 l 65 728 b 0 486 65 608 0 608 b 65 244 0 367 65 367 z m 65 0 l 188 0 l 188 122 l 65 122 z "},".":{"ha":206,"x_min":0,"x_max":0,"o":"m 192 122 l 69 122 l 69 0 l 192 0 z "},"?":{"ha":381,"x_min":0,"x_max":0,"o":"m 244 974 b 183 983 225 979 206 983 b 122 974 163 983 142 979 b 0 800 51 947 0 881 l 0 740 l 122 740 l 122 799 b 179 861 122 831 147 860 b 244 800 215 864 244 835 l 244 729 b 232 651 244 696 239 671 l 229 644 b 182 597 221 625 203 610 b 57 488 129 564 57 544 b 58 453 57 474 57 463 b 69 410 61 436 64 422 b 71 406 69 408 69 407 l 79 386 b 92 363 83 379 88 371 b 111 319 99 350 106 336 b 114 310 113 317 114 314 l 118 294 b 121 276 119 289 119 282 b 122 244 122 267 122 257 l 122 183 l 244 183 l 244 244 b 243 276 244 257 244 267 b 240 294 242 282 242 289 l 236 310 b 226 339 233 321 229 331 b 213 365 222 349 217 357 b 211 368 213 367 211 367 b 193 406 204 379 199 392 b 192 410 192 407 192 408 b 181 453 188 422 183 436 b 179 488 179 463 179 474 b 354 651 179 569 326 575 b 367 729 361 671 367 696 l 367 800 b 244 974 367 881 315 947 z m 122 0 l 244 0 l 244 122 l 122 122 z "},";":{"ha":232,"x_min":0,"x_max":0,"o":"m 17 475 b 56 354 18 415 39 386 l 178 354 b 139 475 161 386 140 415 z m 204 122 l 82 122 l 82 0 b 14 -61 82 -33 56 -61 l 14 -190 b 82 -176 42 -190 63 -183 b 204 0 157 -150 204 -82 z "},"/":{"ha":381,"x_min":0,"x_max":0,"o":"m 367 972 l 240 972 l 181 728 b 54 486 151 613 78 589 b 60 244 28 369 89 354 l 0 0 l 126 0 l 186 244 b 181 486 214 354 153 369 b 306 728 204 589 276 613 z "},"_":{"ha":436,"x_min":0,"x_max":0,"o":"m 0 0 l 367 0 l 367 122 l 0 122 z "},"[":{"ha":403,"x_min":0,"x_max":0,"o":"m 199 974 l 375 974 l 375 1094 l 78 1094 l 78 725 b 14 488 78 607 14 607 b 78 249 14 369 78 369 l 78 -122 l 375 -122 l 375 -1 l 199 -1 l 199 249 b 133 488 199 369 133 369 b 199 725 133 607 199 607 z "},"]":{"ha":351,"x_min":0,"x_max":0,"o":"m 338 1094 l 42 1094 l 42 975 l 218 975 l 218 725 b 153 488 218 607 153 607 b 218 250 153 369 218 369 l 218 -1 l 42 -1 l 42 -122 l 338 -122 l 338 250 b 274 488 338 369 274 369 b 338 725 274 607 338 607 z "},"(":{"ha":401,"x_min":0,"x_max":0,"o":"m 197 914 b 258 975 197 947 225 975 l 374 975 l 374 1094 l 258 1094 b 197 1085 238 1094 217 1092 b 78 914 128 1060 78 993 l 78 725 b 14 488 78 607 14 607 b 78 250 14 369 78 369 l 78 58 b 197 -111 78 -19 128 -86 b 258 -122 217 -118 238 -122 l 374 -122 l 374 -1 l 258 -1 b 197 58 225 -1 197 25 l 197 250 b 133 488 197 369 133 369 b 197 725 133 607 197 607 z "},")":{"ha":353,"x_min":0,"x_max":0,"o":"m 42 -1 l 42 -122 l 158 -122 b 218 -111 179 -122 200 -118 b 339 58 289 -86 339 -19 l 339 250 b 274 488 339 369 274 369 b 339 725 274 607 339 607 l 339 915 b 218 1085 339 993 289 1060 b 158 1094 200 1092 179 1094 l 42 1094 l 42 975 l 158 975 b 218 915 192 975 218 947 l 218 725 b 154 488 218 607 154 607 b 218 250 154 369 218 369 l 218 58 b 158 -1 218 25 192 -1 z "},"-":{"ha":415,"x_min":0,"x_max":0,"o":"m 367 486 b 374 547 367 511 369 531 l 7 547 b 0 486 3 531 0 511 b 7 425 0 461 3 442 l 374 425 b 367 486 369 442 367 461 z "},"“":{"ha":386,"x_min":0,"x_max":0,"o":"m 0 694 l 122 694 l 122 972 l 0 972 z m 194 694 l 317 694 l 317 972 l 194 972 z "},"”":{"ha":386,"x_min":0,"x_max":0,"o":"m 0 694 l 122 694 l 122 972 l 0 972 z m 194 694 l 317 694 l 317 972 l 194 972 z "},"‘":{"ha":192,"x_min":0,"x_max":0,"o":"m 0 694 l 122 694 l 122 972 l 0 972 z "},"’":{"ha":192,"x_min":0,"x_max":0,"o":"m 0 694 l 122 694 l 122 972 l 0 972 z "}," ":{"ha":208,"x_min":0,"x_max":0,"o":""},"$":{"ha":403,"x_min":0,"x_max":0,"o":"m 274 733 l 396 733 l 396 794 b 385 856 396 817 392 836 b 274 967 367 908 325 949 l 274 1038 l 151 1038 l 151 967 b 29 796 81 942 29 875 l 29 722 b 17 647 29 690 24 667 b 8 586 10 626 4 607 b 68 482 11 568 19 546 b 268 294 138 392 258 333 b 274 240 271 281 274 261 l 274 178 b 213 117 274 144 246 117 b 151 178 179 117 151 144 l 151 238 l 29 238 l 29 178 b 151 6 29 99 81 31 l 151 -65 l 274 -65 l 274 6 b 385 117 325 24 367 65 b 396 178 392 136 396 156 l 396 215 l 396 240 b 331 386 396 315 371 354 b 146 576 186 497 171 533 b 146 669 122 617 139 639 b 151 724 150 685 151 703 l 151 794 b 213 856 151 828 179 856 b 274 794 246 856 274 828 z "},"€":{"ha":508,"x_min":0,"x_max":0,"o":"m 379 740 l 501 740 l 501 800 b 379 972 501 879 450 947 b 318 983 360 979 339 983 b 257 972 296 983 276 979 b 256 972 257 974 257 972 b 135 800 185 946 135 879 l 135 729 b 121 649 135 693 129 669 l 58 649 b 8 526 43 606 17 582 l 72 526 b 69 486 69 514 69 501 b 71 451 69 474 69 463 l 7 451 b 56 329 14 394 39 369 l 119 329 b 135 244 128 308 135 282 l 135 174 b 256 1 135 93 185 26 b 257 0 257 0 257 0 b 318 -10 276 -7 296 -10 b 379 0 339 -10 360 -7 b 501 174 450 26 501 93 l 501 233 l 379 233 l 379 174 b 318 113 379 139 351 113 b 257 174 285 113 257 139 l 257 244 b 242 329 257 282 250 308 l 375 329 b 326 451 358 369 333 394 l 193 451 b 192 486 192 463 192 474 b 194 526 192 501 192 514 l 328 526 b 378 649 336 582 363 606 l 243 649 b 257 728 251 669 257 693 l 257 800 b 318 861 257 833 285 861 b 379 800 351 861 379 833 z "},"£":{"ha":507,"x_min":0,"x_max":0,"o":"m 500 122 l 257 122 l 257 236 l 257 247 b 199 426 257 343 217 363 l 333 426 b 325 486 328 443 325 463 b 332 547 325 511 328 531 l 199 547 b 257 728 215 613 257 632 b 257 731 257 729 257 729 l 257 801 b 318 863 257 835 283 863 b 379 801 351 863 379 835 l 379 742 l 500 742 l 500 801 b 379 974 500 881 450 949 b 318 983 360 981 339 983 b 257 974 296 983 275 981 b 256 972 257 974 256 974 b 135 801 185 947 135 881 l 135 731 b 75 547 135 633 92 615 l 14 547 b 7 486 10 531 7 511 b 14 426 7 463 10 443 l 76 426 b 135 244 93 361 135 342 l 135 0 l 500 0 z "},"¥":{"ha":446,"x_min":0,"x_max":0,"o":"m 439 972 l 317 972 l 317 792 b 256 731 317 757 290 731 b 196 792 222 731 196 757 l 196 972 l 74 972 l 74 792 b 122 650 74 718 90 679 l 58 650 b 8 528 42 607 17 583 l 133 528 b 129 486 131 515 129 501 b 132 453 129 474 131 464 l 7 453 b 54 331 14 396 38 371 l 179 331 b 196 244 189 310 196 283 l 196 0 l 317 0 l 317 244 b 301 331 317 283 311 310 l 421 331 b 374 453 404 371 381 396 l 254 453 b 251 486 253 464 251 474 b 254 528 251 501 253 515 l 374 528 b 424 650 383 583 408 607 l 360 650 b 428 728 392 671 417 697 b 439 792 436 747 439 769 z "},"=":{"ha":446,"x_min":0,"x_max":0,"o":"m 53 646 b 1 524 36 603 10 579 l 369 524 b 418 646 378 579 403 603 z m 0 449 b 49 326 8 392 32 367 l 415 326 b 368 449 400 367 374 392 z "},"−":{"ha":388,"x_min":0,"x_max":0,"o":"m 367 486 b 374 547 367 511 369 531 l 7 547 b 0 486 3 531 0 511 b 7 425 0 461 3 442 l 374 425 b 367 486 369 442 367 461 z "},"+":{"ha":415,"x_min":0,"x_max":0,"o":"m 374 425 b 367 486 369 442 367 461 b 374 547 367 511 368 531 l 254 547 b 307 669 267 597 294 621 l 185 669 b 132 547 172 621 144 597 l 7 547 b 0 486 3 531 0 511 b 7 425 0 461 3 442 l 132 425 b 185 303 146 376 172 353 l 307 303 b 254 425 294 353 268 376 z "},"&":{"ha":508,"x_min":0,"x_max":0,"o":"m 501 731 l 258 731 l 256 731 b 194 790 222 731 196 757 l 194 799 l 196 799 l 196 800 b 256 860 196 833 222 860 b 317 800 290 860 317 833 l 317 799 l 439 799 b 440 800 439 800 440 800 b 318 972 439 879 389 947 b 256 983 299 979 278 983 b 194 972 235 983 214 979 b 72 800 124 947 74 879 l 72 799 l 72 792 l 72 790 b 72 789 72 790 72 790 l 72 728 b 106 669 72 704 92 678 b 7 486 51 654 7 583 b 72 244 7 365 72 365 b 72 174 72 229 72 203 l 72 172 b 194 0 74 93 124 25 b 256 -11 214 -7 235 -11 b 318 0 278 -11 299 -7 b 440 172 389 25 439 93 b 439 174 440 172 439 172 l 440 174 l 440 204 l 440 244 b 374 486 440 365 374 365 b 381 546 374 510 376 529 b 407 608 388 571 397 589 l 468 608 b 501 728 485 638 501 668 z m 317 231 l 317 204 l 317 174 l 317 172 b 256 113 317 139 290 113 b 196 172 222 113 196 139 l 196 174 l 194 174 l 194 244 b 129 486 194 365 129 365 b 142 563 129 524 133 542 b 224 607 150 585 174 607 l 285 607 b 264 565 278 594 269 581 l 264 564 b 254 521 260 551 256 538 b 251 486 253 510 251 499 b 317 244 251 365 317 365 z "}}}
